<svg xmlns="http://www.w3.org/2000/svg" width="1200" height="750" viewBox="0 0 1200 750" role="img" aria-label="Dashboard RAB Preview">
  <defs>
    <linearGradient id="bg" x1="0" y1="0" x2="1" y2="1">
      <stop offset="0%" stop-color="#f8fafc"/>
      <stop offset="100%" stop-color="#e2e8f0"/>
    </linearGradient>
    <linearGradient id="bar" x1="0" y1="0" x2="1" y2="0">
      <stop offset="0%" stop-color="#0d6efd"/>
      <stop offset="100%" stop-color="#1d4ed8"/>
    </linearGradient>
  </defs>
  <rect width="1200" height="750" fill="url(#bg)"/>
  <rect x="40" y="40" width="1120" height="670" rx="20" fill="#ffffff" stroke="#cbd5e1"/>
  <rect x="40" y="40" width="1120" height="64" rx="20" fill="#0f172a"/>
  <circle cx="75" cy="72" r="8" fill="#ef4444"/>
  <circle cx="100" cy="72" r="8" fill="#f59e0b"/>
  <circle cx="125" cy="72" r="8" fill="#22c55e"/>
  <text x="170" y="78" font-family="Arial, sans-serif" font-size="20" fill="#e2e8f0">Dashboard-RAB</text>

  <rect x="75" y="140" width="220" height="120" rx="12" fill="#eff6ff" stroke="#bfdbfe"/>
  <text x="95" y="185" font-family="Arial, sans-serif" font-size="16" fill="#1e3a8a">Total Project</text>
  <text x="95" y="225" font-family="Arial, sans-serif" font-size="34" font-weight="700" fill="#1d4ed8">128</text>

  <rect x="315" y="140" width="220" height="120" rx="12" fill="#ecfdf5" stroke="#bbf7d0"/>
  <text x="335" y="185" font-family="Arial, sans-serif" font-size="16" fill="#166534">Progress Avg</text>
  <text x="335" y="225" font-family="Arial, sans-serif" font-size="34" font-weight="700" fill="#15803d">72%</text>

  <rect x="555" y="140" width="220" height="120" rx="12" fill="#fff7ed" stroke="#fed7aa"/>
  <text x="575" y="185" font-family="Arial, sans-serif" font-size="16" fill="#9a3412">Budget Used</text>
  <text x="575" y="225" font-family="Arial, sans-serif" font-size="34" font-weight="700" fill="#ea580c">56%</text>

  <rect x="795" y="140" width="320" height="120" rx="12" fill="#f8fafc" stroke="#e2e8f0"/>
  <text x="815" y="185" font-family="Arial, sans-serif" font-size="16" fill="#334155">System Status</text>
  <rect x="815" y="205" width="280" height="18" rx="9" fill="#e2e8f0"/>
  <rect x="815" y="205" width="230" height="18" rx="9" fill="url(#bar)"/>

  <rect x="75" y="300" width="730" height="360" rx="12" fill="#ffffff" stroke="#e2e8f0"/>
  <text x="95" y="340" font-family="Arial, sans-serif" font-size="18" fill="#1e293b">Kurva S / Progress Timeline</text>
  <path d="M120 600 L220 550 L320 520 L420 470 L520 430 L620 380 L720 340" fill="none" stroke="#2563eb" stroke-width="5"/>
  <circle cx="120" cy="600" r="6" fill="#2563eb"/>
  <circle cx="220" cy="550" r="6" fill="#2563eb"/>
  <circle cx="320" cy="520" r="6" fill="#2563eb"/>
  <circle cx="420" cy="470" r="6" fill="#2563eb"/>
  <circle cx="520" cy="430" r="6" fill="#2563eb"/>
  <circle cx="620" cy="380" r="6" fill="#2563eb"/>
  <circle cx="720" cy="340" r="6" fill="#2563eb"/>

  <rect x="830" y="300" width="285" height="360" rx="12" fill="#ffffff" stroke="#e2e8f0"/>
  <text x="850" y="340" font-family="Arial, sans-serif" font-size="18" fill="#1e293b">Quick Actions</text>
  <rect x="850" y="370" width="245" height="44" rx="8" fill="#f8fafc" stroke="#cbd5e1"/>
  <text x="870" y="398" font-family="Arial, sans-serif" font-size="15" fill="#334155">Create New Project</text>
  <rect x="850" y="430" width="245" height="44" rx="8" fill="#f8fafc" stroke="#cbd5e1"/>
  <text x="870" y="458" font-family="Arial, sans-serif" font-size="15" fill="#334155">Export PDF Report</text>
  <rect x="850" y="490" width="245" height="44" rx="8" fill="#f8fafc" stroke="#cbd5e1"/>
  <text x="870" y="518" font-family="Arial, sans-serif" font-size="15" fill="#334155">Manage Schedules</text>

  <text x="600" y="705" text-anchor="middle" font-family="Arial, sans-serif" font-size="18" fill="#64748b">
    Dashboard RAB Preview
  </text>
</svg>
